<svg width="452" height="502" viewBox="0 0 452 502" fill="none" xmlns="http://www.w3.org/2000/svg">
<path d="M1.48966 468.763L213.811 88.9032C218.201 81.0702 229.447 81.0249 233.905 88.8127L450.458 468.717C455.301 477.23 448.037 487.53 438.397 485.81L225.849 447.799C224.492 447.55 223.111 447.55 221.754 447.799L13.6411 485.742C4.04668 487.508 -3.26228 477.275 1.48966 468.763Z" fill="url(#paint0_linear_1_15)"/>
<circle cx="226" cy="144" r="131" fill="#FFAC04"/>
<path fill-rule="evenodd" clip-rule="evenodd" d="M226.116 0C148.635 0 86 63.0206 86 140.986C86 203.307 126.133 256.061 181.807 274.732C188.768 276.136 191.318 271.699 191.318 267.966C191.318 264.698 191.088 253.495 191.088 241.821C152.111 250.226 143.995 225.015 143.995 225.015C137.731 208.675 128.45 204.476 128.45 204.476C115.693 195.839 129.379 195.839 129.379 195.839C143.53 196.773 150.956 210.311 150.956 210.311C163.48 231.784 183.663 225.717 191.782 221.981C192.941 212.878 196.655 206.576 200.599 203.075C169.512 199.807 136.805 187.67 136.805 133.515C136.805 118.109 142.369 105.505 151.185 95.7025C149.794 92.202 144.921 77.7273 152.579 58.3542C152.579 58.3542 164.41 54.6188 191.085 72.826C202.506 69.7399 214.284 68.17 226.116 68.1567C237.947 68.1567 250.007 69.7924 261.143 72.826C287.822 54.6188 299.653 58.3542 299.653 58.3542C307.31 77.7273 302.435 92.202 301.044 95.7025C310.092 105.505 315.427 118.109 315.427 133.515C315.427 187.67 282.72 199.572 251.401 203.075C256.506 207.51 260.911 215.911 260.911 229.217C260.911 248.123 260.682 263.297 260.682 267.963C260.682 271.699 263.234 276.136 270.192 274.735C325.867 256.058 365.999 203.307 365.999 140.986C366.229 63.0206 303.364 0 226.116 0Z" fill="url(#paint1_linear_1_15)"/>
<path d="M153.236 501.903L285.898 475.412C288.076 474.984 289.7 473.096 289.834 470.838L297.991 330.426C298.182 327.117 295.202 324.547 292.031 325.287L255.101 333.968C251.644 334.785 248.53 331.671 249.236 328.129L260.202 273.416C260.947 269.737 257.547 266.584 254.013 267.674L231.202 274.739C227.667 275.829 224.267 272.676 225.012 268.978L242.454 182.986C243.543 177.614 236.532 174.675 233.59 179.288L231.641 182.363L123.528 402.15C121.713 405.829 124.846 410.033 128.801 409.255L166.819 401.78C170.392 401.08 173.429 404.466 172.417 408.028L147.6 495.674C146.607 499.217 149.663 502.623 153.236 501.903Z" fill="url(#paint2_linear_1_15)"/>
<defs>
<linearGradient id="paint0_linear_1_15" x1="339.131" y1="585.285" x2="74.7134" y2="226.354" gradientUnits="userSpaceOnUse">
<stop stop-color="#41D1FF"/>
<stop offset="1" stop-color="#BD34FE"/>
</linearGradient>
<linearGradient id="paint1_linear_1_15" x1="489" y1="434.5" x2="152.02" y2="31.3267" gradientUnits="userSpaceOnUse">
<stop stop-color="#41D1FF"/>
<stop offset="0.846324" stop-color="#BD34FE"/>
</linearGradient>
<linearGradient id="paint2_linear_1_15" x1="229.164" y1="497.664" x2="187.306" y2="215.822" gradientUnits="userSpaceOnUse">
<stop stop-color="#FFEA83"/>
<stop offset="0.083" stop-color="#FFDD35"/>
<stop offset="1" stop-color="#FFA800"/>
</linearGradient>
</defs>
</svg>
