<svg width="145" height="162" viewBox="0 0 145 162" fill="none" xmlns="http://www.w3.org/2000/svg">
<path d="M0.477882 151.338L68.5899 29.4801C69.9981 26.9672 73.6059 26.9527 75.0359 29.451L144.505 151.323C146.059 154.054 143.729 157.358 140.636 156.806L72.4517 144.613C72.0162 144.533 71.5734 144.533 71.1378 144.613L4.37602 156.785C1.29816 157.351 -1.04653 154.068 0.477882 151.338Z" fill="url(#paint0_linear_1_15)"/>
<circle cx="72.5" cy="47.1549" r="42.0243" fill="#FFAC04"/>
<path fill-rule="evenodd" clip-rule="evenodd" d="M72.5372 0.960205C47.6817 0.960205 27.5885 21.177 27.5885 46.1879C27.5885 66.1804 40.4629 83.1037 58.3231 89.0934C60.5561 89.5437 61.3741 88.1202 61.3741 86.9229C61.3741 85.8743 61.3005 82.2803 61.3005 78.5356C48.7968 81.2318 46.1931 73.1442 46.1931 73.1442C44.1836 67.9025 41.2063 66.5554 41.2063 66.5554C37.1139 63.7848 41.5044 63.7848 41.5044 63.7848C46.044 64.0843 48.426 68.4273 48.426 68.4273C52.444 75.3157 58.9184 73.3693 61.5231 72.171C61.8948 69.2506 63.0863 67.229 64.3514 66.106C54.3788 65.0575 43.8865 61.1639 43.8865 43.7913C43.8865 38.8492 45.6714 34.8058 48.4996 31.6612C48.0534 30.5383 46.4902 25.8948 48.9468 19.68C48.9468 19.68 52.742 18.4817 61.2995 24.3225C64.9633 23.3325 68.7417 22.8289 72.5372 22.8246C76.3324 22.8246 80.2013 23.3494 83.7739 24.3225C92.3323 18.4817 96.1275 19.68 96.1275 19.68C98.5841 25.8948 97.02 30.5383 96.5738 31.6612C99.4765 34.8058 101.188 38.8492 101.188 43.7913C101.188 61.1639 90.6955 64.9821 80.6484 66.106C82.2861 67.5285 83.6993 70.2238 83.6993 74.4923C83.6993 80.5573 83.6257 85.425 83.6257 86.9219C83.6257 88.1202 84.4446 89.5437 86.6767 89.0943C104.537 83.1028 117.411 66.1804 117.411 46.1879C117.485 21.177 97.3181 0.960205 72.5372 0.960205Z" fill="url(#paint1_linear_1_15)"/>
<path d="M49.1575 161.969L91.7151 153.471C92.4138 153.333 92.9347 152.728 92.9776 152.003L95.5946 106.96C95.6558 105.898 94.6998 105.074 93.6824 105.311L81.8357 108.096C80.7264 108.358 79.7274 107.359 79.9542 106.223L83.472 88.6709C83.711 87.4908 82.6201 86.4793 81.4863 86.829L74.1687 89.0955C73.0349 89.4452 71.944 88.4337 72.183 87.2473L77.7785 59.6615C78.1278 57.9381 75.8786 56.9953 74.9348 58.4751L74.3096 59.4617L39.6274 129.969C39.0452 131.149 40.0503 132.497 41.3189 132.248L53.515 129.85C54.6611 129.625 55.6355 130.712 55.3107 131.854L47.3496 159.971C47.0309 161.107 48.0115 162.2 49.1575 161.969Z" fill="url(#paint2_linear_1_15)"/>
<defs>
<linearGradient id="paint0_linear_1_15" x1="108.792" y1="188.718" x2="23.9678" y2="73.5738" gradientUnits="userSpaceOnUse">
<stop stop-color="#41D1FF"/>
<stop offset="1" stop-color="#BD34FE"/>
</linearGradient>
<linearGradient id="paint1_linear_1_15" x1="156.869" y1="140.346" x2="48.7674" y2="11.0097" gradientUnits="userSpaceOnUse">
<stop stop-color="#41D1FF"/>
<stop offset="0.846324" stop-color="#BD34FE"/>
</linearGradient>
<linearGradient id="paint2_linear_1_15" x1="73.515" y1="160.609" x2="60.087" y2="70.1953" gradientUnits="userSpaceOnUse">
<stop stop-color="#FFEA83"/>
<stop offset="0.083" stop-color="#FFDD35"/>
<stop offset="1" stop-color="#FFA800"/>
</linearGradient>
</defs>
</svg>
